# xmcd
#
# Track frame offsets: 
#        150
#        8598
#        28865
#        47560
#        66403
#        88962
#        93878
#        115314
#        140574
#        153750
#        172439
#        174990
#        191544
#        198034
#        215938
#
# Disc length: 3144 seconds
#
# Revision: 0
# Processed by: cddbd v1.5.2PL0 Copyright (c) Steve Scherf et al.
# Submitted via: ExactAudioCopy v0.95b4
#
DISCID=d30c460f
DTITLE=Sarah Brightman - La Luna, Concert, DTS [CD1)
DYEAR=1900
DGENRE=
TTITLE0=La Lune
TTITLE1=Winter in July
TTITLE2=Scarborough Fair
TTITLE3=Figlio Perduto
TTITLE4=A Whiter Shade Of Pale
TTITLE5=He Doesn't See Me
TTITLE6=Serenade
TTITLE7=How Fair This Place
TTITLE8=Hijo De La Luna
TTITLE9=Here With Me
TTITLE10=La Califfa
TTITLE11=This Love
TTITLE12=Solo Con Te
TTITLE13=Gloomy Sunday
TTITLE14=La Luna
EXTD=
EXTT0=
EXTT1=
EXTT2=
EXTT3=
EXTT4=
EXTT5=
EXTT6=
EXTT7=
EXTT8=
EXTT9=
EXTT10=
EXTT11=
EXTT12=
EXTT13=
EXTT14=
PLAYORDER=
